<svg width="400" height="400" viewBox="0 0 400 400" fill="none" xmlns="http://www.w3.org/2000/svg">
<circle cx="200" cy="200" r="200" fill="#CB0F0F"/>
<path d="M329.699 195.699C329.723 201.549 329.319 207.393 328.661 213.206C327.953 219.014 326.959 224.798 325.57 230.502C324.222 236.214 322.501 241.847 320.489 247.394C318.466 252.937 316.022 258.333 313.333 263.621L309.042 261.139C312.177 256.353 314.897 251.29 317.33 246.083C319.775 240.878 321.799 235.466 323.453 229.937C325.069 224.395 326.338 218.738 327.137 213.007C327.986 207.283 328.335 201.489 328.366 195.699H329.699Z" fill="white"/>
<path d="M292.978 292.99C288.914 297.415 284.553 301.588 279.922 305.47C275.263 309.314 270.339 312.862 265.159 316.018C259.998 319.2 254.571 321.964 248.993 324.374C243.399 326.751 237.643 328.767 231.762 330.319L228.665 318.727C234.023 317.271 239.31 315.536 244.466 313.456C249.635 311.408 254.665 309.007 259.575 306.364C264.469 303.692 269.235 300.754 273.805 297.51C278.402 294.302 282.805 290.784 286.971 286.983L292.978 292.99Z" fill="white"/>
<path d="M195.69 334.592C189.633 334.456 183.595 333.839 177.633 332.883C171.666 331.935 165.789 330.506 160.041 328.738C148.531 325.211 137.611 320.074 127.493 313.806L130.529 308.56C140.558 313.946 151.323 317.802 162.301 320.283C167.797 321.519 173.361 322.354 178.933 322.912C184.51 323.464 190.11 323.599 195.69 323.471V334.592Z" fill="white"/>
<path d="M99.8848 291.49C95.7648 287.25 91.8981 282.771 88.3061 278.083C84.7368 273.38 81.3795 268.508 78.4048 263.402C75.4275 258.295 72.7675 253.007 70.3875 247.588C68.0155 242.164 66.0648 236.56 64.3648 230.875L69.3821 229.534C70.6888 235.091 72.4875 240.53 74.5715 245.854C76.6488 251.184 79.1541 256.351 82.0021 261.319C84.8541 266.284 87.9821 271.104 91.4995 275.628C94.9968 280.171 98.8195 284.458 102.926 288.448L99.8848 291.49Z" fill="white"/>
<path d="M58.7155 195.681C58.3221 183.732 59.4715 171.668 62.2061 159.909C63.5581 154.026 65.3928 148.25 67.5528 142.594C69.7088 136.933 72.2981 131.43 75.2501 126.126L85.1875 131.878C82.3155 136.65 79.7395 141.604 77.4381 146.694C75.1421 151.789 73.2288 157.057 71.5755 162.416C68.2901 173.142 66.4221 184.356 66.0155 195.682L58.7155 195.681Z" fill="white"/>
<path d="M96.9804 96.9427C105.482 88.2174 115.126 80.5587 125.656 74.3387C136.18 68.1227 147.524 63.2 159.366 59.9974L163.038 73.7454C152.395 76.5507 142.056 80.6214 132.435 86.0587C122.816 91.4867 113.85 98.128 105.891 105.856L96.9804 96.9427Z" fill="white"/>
<path d="M195.727 55.2455C201.85 55.2949 207.971 55.7349 214.038 56.5735C220.102 57.4362 226.103 58.7095 231.991 60.3629C237.885 62.0028 243.647 64.0869 249.238 66.5335C254.815 69.0109 260.241 71.8229 265.383 75.0775L259.423 85.3708C254.491 82.7988 249.461 80.4442 244.287 78.4655C239.129 76.4535 233.847 74.7882 228.498 73.4229C223.143 72.0695 217.705 71.0789 212.227 70.4322C206.755 69.7602 201.239 69.4469 195.725 69.4855L195.727 55.2455Z" fill="white"/>
<path d="M293.139 98.3099C301.209 107.243 308.023 117.191 313.454 127.753C316.142 133.049 318.585 138.449 320.606 143.998C322.615 149.547 324.334 155.187 325.677 160.905L323.382 161.518C321.721 155.994 319.69 150.589 317.245 145.39C314.811 140.189 312.09 135.133 308.953 130.355C302.738 120.766 295.254 112.103 286.873 104.574L293.139 98.3099Z" fill="white"/>
<path d="M199.5 161.883C208.482 161.883 215.937 168.302 217.403 176.734C217.574 177.724 217.669 178.737 217.669 179.775C217.669 189.655 209.534 197.665 199.5 197.665C189.466 197.665 181.331 189.655 181.331 179.775C181.331 178.737 181.425 177.724 181.597 176.734C183.063 168.302 190.518 161.883 199.5 161.883ZM199.5 133C173.266 133 152 153.941 152 179.773C152 185.024 152.878 190.072 154.5 194.785C154.682 195.411 154.912 196.035 155.191 196.655C156.126 199.035 157.255 201.322 158.558 203.496L186.543 260.026C191.808 270.658 207.192 270.658 212.457 260.026L240.442 203.498C241.745 201.322 242.872 199.035 243.809 196.653C244.088 196.035 244.318 195.411 244.5 194.785C246.122 190.074 247 185.024 247 179.773C247 153.941 225.734 133 199.5 133Z" fill="white"/>
</svg>