<?xml version="1.0" encoding="UTF-8"?>
<svg id="Layer_2" data-name="Layer 2" xmlns="http://www.w3.org/2000/svg" viewBox="0 0 628.03 628.03">
  <defs>
    <style>
      .cls-1 {
        fill: #cb0f0f;
      }

      .cls-1, .cls-2 {
        stroke-width: 0px;
      }

      .cls-2 {
        fill: #fff;
      }
    </style>
  </defs>
  <g id="Layer_1-2" data-name="Layer 1">
    <g>
      <circle class="cls-1" cx="314.02" cy="314.02" r="314.02"/>
      <path class="cls-2" d="m313.02,533.08h-.11c-38.57,0-76.51-10.14-109.72-29.32l9.46-16.38c30.34,17.52,65.01,26.79,100.25,26.79l.11,18.92Zm56.83-7.45l-4.89-18.27c33.88-9.07,64.98-27.06,89.92-52.01l13.38,13.37c-27.29,27.3-61.32,46.99-98.41,56.91Zm-212.14-56.76c-27.32-27.28-47.02-61.3-56.96-98.38l18.27-4.9c9.09,33.88,27.09,64.96,52.06,89.9l-13.37,13.39Zm345.47-45.61l-16.38-9.47c17.56-30.36,26.84-65.06,26.84-100.34v-.42s18.92,0,18.92,0v.35c0,38.68-10.16,76.65-29.38,109.88Zm-390.99-109.6l-18.92-.08c0-38.66,10.12-76.57,29.27-109.75l16.38,9.45c-17.49,30.31-26.74,64.95-26.74,100.17v.21Zm394.57-52.55c-9.12-33.87-27.15-64.94-52.15-89.84l13.35-13.4c27.34,27.25,47.08,61.25,57.06,98.32l-18.27,4.92Zm-335.95-89.42l-13.39-13.36c27.27-27.33,61.28-47.05,98.35-57.01l4.91,18.27c-33.87,9.1-64.95,27.12-89.87,52.1Zm242.19-32.28c-30.29-17.46-64.9-26.69-100.08-26.69h-.32v-18.92h.32c38.49,0,76.37,10.1,109.53,29.21l-9.45,16.39Z"/>
      <path class="cls-2" d="m312.91,228.72c-35.84,0-64.89,29.05-64.89,64.89,0,7.28,1.2,14.29,3.41,20.83.25.87.56,1.73.94,2.59,1.28,3.3,2.82,6.48,4.6,9.49l38.23,78.43c7.19,14.75,28.21,14.75,35.4,0l38.23-78.43c1.78-3.02,3.32-6.19,4.6-9.49.38-.86.69-1.72.94-2.59,2.21-6.54,3.41-13.54,3.41-20.83,0-35.84-29.05-64.89-64.89-64.89Zm0,40.07c12.27,0,22.46,8.91,24.46,20.61.23,1.37.36,2.78.36,4.22,0,13.71-11.11,24.82-24.82,24.82-13.71,0-24.82-11.11-24.82-24.82,0-1.44.13-2.85.36-4.22,2-11.7,12.19-20.61,24.46-20.61Z"/>
    </g>
  </g>
</svg>